# xmcd CD database file generated by OrangeCD 6.4
#
# Track frame offsets:
#	150
#	13516
#	25792
#	44934
#	61767
#	78173
#	177821
#	192877
#
# Disc length: 4083 seconds
#
# Revision: 0
# Processed by: cddbd v1.5.2PL0 Copyright (c) Steve Scherf et al.
# Submitted via: OrangeCD 6.4
#
DISCID=5b0ff108
DTITLE=Jimi Hendrix - Moonbeams and Fairytales
DYEAR=2008
DGENRE=Blues Rock
TTITLE0=Interview with Jimi by Harry Harrison
TTITLE1=Interview with Noel by Harry Harrison
TTITLE2=Stars That Play With Laughing Sams Dice (acetate)
TTITLE3=Burning Of The Midnight Lamp (Mono)
TTITLE4=Burning Of The Midnight Lamp
TTITLE5=Burning Of The Midnight Lamp (Mixing Tape)
TTITLE6=Burning Of The Midnight Lamp (Breakdown Mix)
TTITLE7=Interview with Jimi/Noel/Mitch by Dan Paulson
EXTD=
EXTT0=
EXTT1=
EXTT2=
EXTT3=
EXTT4=
EXTT5=
EXTT6=
EXTT7=
PLAYORDER=
